PathFileType  4	(X/Y/Z) C:\Users\antoi\Documents\MyRepositories\mobilecap\ResultsAnalysis
DataRate	CameraRate	NumFrames	NumMarkers	Units	OrigDataRate	OrigDataStartFrame	OrigNumFrames
100.0	100.0	6	51	mm	100.0	1050	1399
Frame#	Time	r_knee			r_shank_antsup			r_ankle			r_calc			r_5meta			r_toe			L_knee			L_shank_antsup			L_ankle			L_calc			L_5meta			L_toe			r_sh2			r_sh3			r_sh4			L_sh2			L_sh3			r_thigh1			r_thigh2			r_thigh3			r_thigh4			r_thigh5			L_thigh1			L_thigh2			L_thigh3			L_thigh4			r.ASIS			r.PSIS			L.ASIS			L.PSIS			C7			R_Shoulder			L_Shoulder			R_Sternum			L_Sternum			R_humerus			R_elbow_med			R_elbow_lat			R_forearm			R_wrist_radius			R_wrist_ulna			L_humerus			L_elbow_med			L_elbow_lat			L_forearm			L_wrist_radius			L_wrist_ulna			R_HJC			L_HJC			R_HJC_reg			L_HJC_reg			
		X1	Y1	Z1	X2	Y2	Z2	X3	Y3	Z3	X4	Y4	Z4	X5	Y5	Z5	X6	Y6	Z6	X7	Y7	Z7	X8	Y8	Z8	X9	Y9	Z9	X10	Y10	Z10	X11	Y11	Z11	X12	Y12	Z12	X13	Y13	Z13	X14	Y14	Z14	X15	Y15	Z15	X16	Y16	Z16	X17	Y17	Z17	X18	Y18	Z18	X19	Y19	Z19	X20	Y20	Z20	X21	Y21	Z21	X22	Y22	Z22	X23	Y23	Z23	X24	Y24	Z24	X25	Y25	Z25	X26	Y26	Z26	X27	Y27	Z27	X28	Y28	Z28	X29	Y29	Z29	X30	Y30	Z30	X31	Y31	Z31	X32	Y32	Z32	X33	Y33	Z33	X34	Y34	Z34	X35	Y35	Z35	X36	Y36	Z36	X37	Y37	Z37	X38	Y38	Z38	X39	Y39	Z39	X40	Y40	Z40	X41	Y41	Z41	X42	Y42	Z42	X43	Y43	Z43	X44	Y44	Z44	X45	Y45	Z45	X46	Y46	Z46	X47	Y47	Z47	X48	Y48	Z48	X49	Y49	Z49	X50	Y50	Z50	X51	Y51	Z51	

1050	10.49000000	-234.43317	480.49746	-409.23587	-177.13399	394.28980	-411.26523	-299.38145	89.91048	-417.73806	-358.79488	54.42212	-462.76893	-174.77965	50.86766	-385.44143	-147.48301	89.03951	-437.68210	-241.88053	484.12138	-801.42552	-175.76258	407.42899	-792.94913	-289.57384	95.51449	-798.74545	-357.80758	48.58344	-748.91879	-185.19676	47.77496	-839.30713	-138.30675	82.45892	-792.61960	-203.39551	283.21287	-412.26919	-242.75822	406.57659	-375.57041	-273.82366	297.31036	-371.56238	-253.45887	433.39184	-831.21107	-276.78595	314.18282	-841.02158	-492.66714	566.49707	-413.38707	-385.24631	559.44922	-422.53987	-362.24800	506.01556	-384.78159	-499.56504	454.96225	-389.21962	-382.95476	453.34824	-396.78034	-469.01737	582.58388	-780.41132	-330.13713	579.11610	-769.57793	-473.92363	486.24304	-830.58504	-340.77808	478.47826	-812.06770	-481.46776	581.23738	-483.24228	-677.33342	641.70840	-557.54072	-499.49159	590.96947	-738.46610	-678.96804	645.09704	-650.16364	-462.97723	1044.37165	-598.29132	-397.43281	1011.44001	-440.19350	-379.86197	996.53724	-741.63020	-355.36186	943.42043	-568.82746	-355.15973	944.62025	-615.48167	-380.50898	886.43116	-373.25859	-462.15571	686.34675	-398.52098	-459.23304	699.36570	-325.06980	-367.74430	730.26418	-328.29339	-230.09521	780.95206	-398.26180	-220.59379	738.61488	-374.32473	-377.24984	862.70524	-813.76759	-471.43984	676.18854	-787.32743	-457.91394	697.48832	-869.19072	-385.33750	723.75320	-867.36603	-241.37606	776.27505	-806.24255	-235.10159	730.13041	-826.74125	-574.53467	506.23802	-509.36360	-582.25755	513.20857	-698.64038	-568.47037	514.87659	-520.21579	-571.44963	521.05175	-689.06501	
1051	10.50000000	-236.93795	480.73212	-408.97699	-178.85128	395.19628	-410.89265	-299.35988	89.92212	-417.67872	-358.76891	54.58423	-462.77179	-174.77777	50.61790	-385.34380	-147.32693	89.08620	-437.42182	-244.24285	484.36558	-801.50608	-177.69743	408.05397	-792.82888	-289.71217	95.58885	-798.67624	-357.84783	48.58851	-748.93002	-185.20472	48.13504	-839.44241	-138.40789	82.70927	-792.59377	-204.29969	283.95853	-412.08034	-244.51194	407.09635	-375.00951	-274.93055	297.23615	-371.26469	-255.37446	433.67622	-831.50446	-278.11853	314.36628	-841.21758	-495.59899	564.35305	-414.22853	-388.53675	558.86483	-422.82659	-365.06783	505.66990	-384.60083	-501.71611	452.96232	-388.64363	-385.13423	452.59056	-396.68703	-472.67265	580.27528	-780.76364	-333.73329	578.49483	-770.13662	-476.41621	483.98301	-831.16284	-343.10294	477.76508	-812.67331	-485.72656	579.42535	-483.93292	-683.03749	636.61109	-557.92950	-503.86856	589.02304	-738.86992	-684.78614	640.30265	-650.79231	-474.34572	1043.23280	-597.89057	-408.37140	1011.22986	-439.40222	-390.67169	996.86367	-741.64066	-365.40285	943.64324	-568.38229	-365.32098	944.99097	-614.87670	-391.12046	885.64487	-372.42294	-471.33649	685.25758	-398.61971	-468.59704	698.00714	-325.04228	-377.33626	729.41268	-328.18651	-239.80960	780.91398	-397.98351	-230.15339	738.64413	-374.16414	-387.46999	863.19171	-813.95811	-479.84282	675.25005	-787.28930	-466.64695	697.02443	-869.04848	-394.30096	723.78068	-867.27495	-250.59099	777.16194	-806.01573	-243.96696	731.11787	-826.63186	-577.74104	502.90971	-510.00131	-585.55816	509.93918	-699.27207	-571.50839	511.36880	-521.06570	-574.68365	518.07101	-689.70455	
1052	10.51000000	-239.34964	480.95973	-408.93210	-180.54379	396.05536	-410.76263	-299.34303	89.96031	-417.65441	-358.76864	54.64943	-462.80189	-174.80556	50.49758	-385.18995	-147.29741	89.15722	-437.13847	-246.59831	484.73845	-802.04910	-179.61568	408.80570	-792.94876	-289.78184	95.65719	-798.60305	-357.88813	48.63890	-748.95022	-185.19393	48.25639	-839.41652	-138.43795	82.85201	-792.51760	-205.29594	284.68872	-411.97284	-246.12500	407.52861	-374.65280	-275.98114	297.29814	-370.97400	-257.31403	433.85668	-831.70639	-279.31474	314.56983	-841.69440	-499.31844	562.43747	-414.51037	-391.48977	558.41689	-423.33489	-367.78125	505.40400	-384.49263	-503.86467	451.29864	-387.67491	-387.13508	451.92983	-396.71439	-476.21933	578.02933	-781.15589	-337.24523	577.88233	-770.70195	-478.85208	481.76277	-831.71667	-345.51699	477.06549	-813.14865	-489.90782	577.92834	-484.56558	-689.02657	631.46940	-558.29299	-508.27164	587.29397	-739.34231	-690.92960	635.20280	-651.20938	-485.84174	1042.08346	-597.58917	-419.03660	1010.91505	-438.14914	-401.51222	997.08853	-741.68186	-375.45089	943.70249	-567.89963	-375.35164	945.22433	-614.40669	-401.83306	884.70966	-371.62944	-480.76087	684.07891	-398.41467	-478.07487	696.62451	-324.97905	-386.92745	728.38520	-328.03985	-249.55185	780.63601	-397.91793	-239.76228	738.36326	-374.23572	-397.79222	863.38090	-814.05070	-488.69238	674.87027	-786.89836	-475.56271	696.37057	-868.86505	-403.40969	723.52409	-867.13479	-259.98090	777.94005	-805.68500	-253.16848	731.94938	-826.47251	-580.76816	499.73584	-510.54019	-588.79489	506.71892	-699.80416	-574.45302	508.28786	-521.64985	-577.90577	515.05972	-690.18041	
1053	10.52000000	-241.47672	481.57954	-409.11688	-182.27145	396.89967	-410.96666	-299.30645	90.10920	-417.47931	-358.77523	54.70380	-462.81875	-174.81975	50.45736	-384.98347	-147.35633	89.08289	-436.83590	-249.03929	485.13635	-802.79291	-181.65378	409.68599	-793.34557	-289.82885	95.73674	-798.59172	-357.90481	48.66817	-748.93235	-185.18640	48.25366	-839.38205	-138.46739	82.83107	-792.47746	-206.35879	285.34821	-411.90342	-247.74301	407.84192	-374.55195	-276.89253	297.65191	-370.62037	-259.52413	433.93265	-831.91865	-280.57551	314.71881	-842.27564	-502.99767	560.86193	-414.55576	-394.17805	558.12879	-423.57160	-370.25917	505.33160	-384.34855	-505.72107	449.70881	-387.12028	-389.01524	451.60429	-396.62734	-479.66555	576.02765	-781.66774	-340.66843	577.40647	-771.29659	-481.24828	479.79337	-832.31618	-347.94562	476.39835	-813.48128	-494.14434	577.11988	-484.77397	-695.15792	626.52387	-558.70730	-512.70060	585.75245	-739.38208	-697.22155	630.02729	-651.55303	-497.09830	1041.17094	-597.24054	-429.51377	1010.43806	-436.37180	-412.21011	997.21112	-741.77650	-385.35281	943.83810	-567.38860	-385.23265	945.36585	-614.04983	-412.50708	883.72192	-370.95632	-489.99714	682.63280	-398.47814	-487.56778	695.20146	-325.14038	-396.53881	727.18843	-327.92400	-259.29704	780.17939	-397.91785	-249.44040	737.87543	-374.22512	-408.23690	863.25817	-814.17284	-498.08346	675.43809	-786.12249	-484.66396	695.61345	-868.62940	-412.63057	723.11713	-866.99195	-269.40445	778.45096	-805.49297	-262.62908	732.28984	-826.31299	-583.77669	497.08731	-510.61525	-591.85064	503.60625	-699.89329	-577.32284	505.83649	-521.60723	-581.06653	512.19143	-690.02934	
1054	10.53000000	-243.41257	482.47751	-409.25551	-184.02362	397.80972	-411.25795	-299.26771	90.29093	-417.26169	-358.75834	54.83068	-462.84196	-174.82623	50.34726	-384.79781	-147.33388	88.77002	-436.56367	-251.66032	485.42395	-803.35880	-183.89742	410.51514	-793.85141	-289.86405	95.80562	-798.62403	-357.77444	48.57890	-748.83790	-185.18342	48.19862	-839.45890	-138.50757	82.64655	-792.51295	-207.39970	286.09384	-411.90661	-249.41965	408.27229	-374.46736	-277.72914	298.04934	-370.49369	-262.07807	434.04279	-832.38823	-282.07977	314.69396	-842.79988	-505.62770	559.75469	-414.83225	-396.41010	558.34449	-423.50227	-372.44099	505.54862	-384.11428	-507.26005	448.46789	-387.15341	-390.85245	451.69798	-396.45977	-483.00441	574.48497	-782.31337	-343.97571	577.17133	-772.04786	-483.64722	478.19500	-832.96619	-350.33065	475.96570	-813.96609	-498.52431	577.16448	-484.72458	-701.19340	622.01316	-559.17825	-517.29958	584.51749	-739.07817	-703.44608	625.22204	-652.14107	-507.84914	1040.76413	-596.69587	-439.68053	1009.95475	-434.63019	-422.70648	997.41343	-741.98725	-395.04959	944.18412	-566.96646	-394.99998	945.64873	-613.60427	-423.12163	882.76188	-370.38460	-499.00308	680.92201	-398.97944	-497.08221	693.71256	-325.67381	-406.25386	725.90290	-327.99535	-269.02569	779.50785	-397.85374	-259.19545	737.26915	-373.98600	-418.75761	862.99807	-814.38176	-507.19850	675.02966	-785.85088	-493.96081	694.88819	-868.30527	-421.94474	722.68021	-866.76123	-278.83532	778.63883	-805.42994	-271.70371	731.74446	-825.78882	-586.86452	495.19885	-510.37194	-594.81588	500.84409	-699.68279	-580.14378	503.97988	-521.22469	-584.22050	509.78653	-689.47591	
1055	10.54000000	-245.29203	483.39793	-409.25812	-185.70464	398.87626	-411.41760	-299.16404	90.38018	-417.23498	-358.69851	55.00053	-462.87397	-174.74863	50.03525	-384.60409	-147.11675	88.22517	-436.33599	-254.35100	485.84153	-804.07220	-186.34354	411.28123	-794.47646	-289.91373	95.83932	-798.62033	-357.56859	48.42134	-748.71471	-185.17799	48.08955	-839.53766	-138.52567	82.40833	-792.52771	-208.32277	286.99923	-411.98709	-251.05717	408.97083	-374.28954	-278.71413	298.31264	-370.68985	-264.87231	434.25602	-833.07956	-283.88150	314.51748	-843.16563	-507.64345	559.29438	-415.20630	-398.37593	558.87284	-423.43235	-374.36232	506.04103	-383.93986	-508.87167	448.13637	-387.08837	-392.60014	452.13956	-396.35345	-486.19591	573.47136	-783.01051	-347.12469	577.17445	-773.00915	-486.11334	477.00923	-833.63877	-352.75118	475.88140	-814.73870	-502.93399	577.98787	-484.67975	-707.09450	618.24883	-559.46362	-522.18644	583.91036	-739.16393	-709.45367	621.11005	-652.77553	-518.05274	1041.04842	-596.00739	-449.39854	1009.72573	-433.30717	-432.93120	997.84207	-742.41078	-404.57503	944.84990	-566.66475	-404.57191	946.33452	-613.05269	-433.67820	881.94838	-369.90037	-508.30833	679.52801	-399.56788	-506.79743	692.35884	-326.29658	-416.10124	724.69054	-328.30496	-278.68781	778.60613	-397.83176	-268.95220	736.36773	-373.89652	-429.22774	862.76850	-814.52491	-515.46987	672.31954	-786.41482	-503.43730	694.28727	-867.85117	-431.39780	722.30349	-866.53303	-288.31717	778.58924	-805.23306	-280.24290	730.88685	-824.90888	-589.90702	494.11700	-510.15844	-597.93339	498.78742	-699.49337	-583.17306	502.80534	-520.91854	-587.43006	507.96754	-689.27029	
